<?xml version="1.0" standalone="no"?>
<!DOCTYPE svg PUBLIC "-//W3C//DTD SVG 20010904//EN"
 "http://www.w3.org/TR/2001/REC-SVG-20010904/DTD/svg10.dtd">
<svg version="1.0" xmlns="http://www.w3.org/2000/svg"
 width="250.000000pt" height="119.000000pt" viewBox="0 0 250.000000 119.000000"
 preserveAspectRatio="xMidYMid meet">
<metadata>
Created by potrace 1.16, written by Peter Selinger 2001-2019
</metadata>
<g transform="translate(0.000000,119.000000) scale(0.020833,-0.014875)"
fill="#000000" stroke="none">
<path d="M1038 7775 c-10 -13 -18 -29 -18 -34 0 -6 -12 -11 -27 -11 -28 -1
-83 -40 -83 -59 0 -6 21 -32 48 -58 64 -65 87 -105 111 -193 33 -123 73 -396
87 -594 l7 -98 -83 -83 c-82 -83 -83 -84 -82 -131 3 -58 12 -70 79 -100 52
-22 53 -24 53 -65 0 -50 -47 -384 -95 -669 -35 -211 -65 -348 -90 -421 -8 -23
-15 -49 -15 -59 0 -19 72 -56 88 -46 21 13 134 320 153 415 30 147 66 367 94
582 39 298 34 276 63 282 35 7 107 -27 215 -99 49 -32 106 -70 126 -84 83 -55
282 -229 400 -349 192 -195 346 -389 372 -469 6 -21 17 -43 23 -51 6 -7 9 -26
8 -41 -3 -21 4 -33 25 -47 42 -29 59 -33 80 -18 10 8 28 11 40 9 13 -4 33 3
53 18 31 22 31 24 25 80 -4 33 -2 81 5 114 12 58 12 58 26 32 10 -19 29 -31
65 -42 50 -14 54 -14 118 11 87 33 222 63 291 63 45 0 79 10 180 55 69 30 130
55 136 55 11 0 139 -152 185 -220 19 -28 71 -71 158 -131 72 -49 136 -89 144
-89 8 0 22 16 32 35 27 49 34 37 -225 395 -52 72 -120 164 -150 205 -30 41
-84 114 -120 162 -35 48 -88 116 -118 151 -76 91 -218 222 -240 222 -37 0 -99
-54 -192 -167 -52 -63 -126 -160 -163 -216 -38 -56 -72 -106 -77 -111 -4 -4
-53 17 -108 48 -55 31 -105 56 -112 56 -18 0 -70 -40 -70 -54 0 -7 39 -65 86
-130 l86 -117 -43 -94 c-24 -52 -46 -95 -49 -95 -3 0 -22 47 -43 105 -49 136
-99 204 -307 420 -120 125 -311 301 -465 430 -71 60 -159 134 -195 164 -36 30
-66 60 -68 67 -2 7 12 34 32 61 19 26 65 98 102 158 37 61 75 119 84 130 9 11
41 61 71 110 29 50 84 137 121 194 37 58 68 113 68 122 0 10 -11 30 -24 46
l-24 28 -134 -102 c-131 -99 -137 -106 -217 -225 -105 -156 -225 -320 -228
-310 -1 4 -9 81 -18 172 -8 91 -19 185 -24 210 -5 25 -19 101 -31 170 -24 138
-65 297 -82 317 -6 7 -31 13 -57 13 -37 -1 -49 -5 -63 -25z m2077 -1742 c28
-14 75 -44 106 -67 64 -47 184 -155 178 -159 -8 -6 -465 11 -496 18 -18 4 -33
13 -33 21 0 11 67 115 129 201 19 26 42 23 116 -14z"/>
<path d="M4325 7585 c-69 -40 -85 -43 -85 -15 0 16 -7 20 -38 20 -58 0 -72
-16 -65 -72 4 -37 15 -59 50 -99 24 -28 51 -68 59 -88 22 -50 134 -497 134
-532 0 -34 -2 -35 -160 -88 -90 -31 -139 -53 -177 -82 -86 -67 -88 -73 -97
-279 -6 -113 -19 -168 -47 -187 -21 -16 -46 -110 -31 -125 5 -5 27 -13 47 -18
35 -8 41 -6 73 23 19 18 65 74 104 124 38 51 95 115 126 143 62 55 219 166
226 159 2 -2 16 -75 30 -163 34 -203 94 -522 106 -561 5 -16 17 -75 25 -130 9
-55 21 -105 26 -111 10 -12 87 -30 94 -22 2 2 14 75 25 162 20 152 21 163 5
260 -9 56 -21 114 -26 131 -16 50 -100 555 -94 565 3 6 36 28 73 50 37 22 114
74 172 114 l105 73 3 52 c3 44 0 51 -15 51 -36 -1 -369 -47 -384 -54 -13 -6
-17 2 -22 41 -3 26 -13 86 -22 133 -17 94 -18 100 -35 285 -20 226 -16 212
-62 245 -23 17 -46 30 -52 30 -6 0 -38 -16 -71 -35z"/>
<path d="M6847 6768 c-81 -86 -201 -258 -247 -355 -28 -57 -52 -103 -54 -103
-2 0 -39 12 -82 26 -99 32 -171 30 -210 -7 -40 -37 -46 -54 -34 -98 10 -37 12
-38 63 -45 28 -3 75 -6 103 -6 28 0 65 -3 82 -6 l30 -6 -14 -47 c-52 -165
-122 -505 -111 -535 3 -8 24 -24 47 -36 43 -22 60 -19 104 19 14 12 20 13 23
4 6 -16 57 -17 84 -3 26 14 24 44 -7 126 -23 61 -26 79 -21 159 4 86 38 255
57 284 7 13 42 10 242 -17 269 -36 393 -48 643 -62 99 -6 204 -16 234 -23 48
-11 58 -18 90 -62 51 -70 60 -82 115 -166 27 -41 57 -85 66 -99 10 -14 35 -59
56 -99 31 -60 60 -94 157 -185 65 -61 123 -113 128 -115 14 -4 69 49 69 67 0
27 -215 406 -313 551 -38 57 -46 75 -36 82 8 5 17 9 22 9 4 0 7 18 7 39 0 32
-6 44 -31 65 -17 14 -48 29 -68 32 -49 8 -47 6 -113 89 -98 124 -264 267 -416
359 -190 115 -185 112 -332 163 -56 19 -103 27 -188 30 l-112 6 -33 -35z m287
-218 c190 -48 398 -181 556 -355 l25 -28 -85 6 c-351 24 -920 102 -920 126 0
4 25 56 54 117 53 106 57 112 103 132 62 28 164 29 267 2z"/>
<path d="M5348 6683 c-9 -10 -22 -37 -29 -61 l-12 -43 71 -67 c80 -74 77 -67
73 -227 -3 -76 -30 -180 -44 -166 -5 5 -11 69 -13 141 -3 114 -6 136 -25 168
-34 57 -45 62 -132 62 l-79 0 6 25 c5 21 1 27 -33 44 -39 20 -39 20 -64 1 -52
-41 -57 -109 -18 -235 11 -33 27 -100 36 -150 49 -267 104 -378 212 -431 75
-37 135 -31 198 21 26 21 51 49 56 63 5 13 19 38 31 54 11 17 35 75 53 130
l33 100 86 -170 c47 -94 111 -213 141 -264 30 -51 117 -214 191 -362 117 -231
135 -273 131 -302 -22 -132 -178 -281 -375 -358 -72 -28 -238 -72 -307 -81
-27 -4 -66 -11 -85 -15 -57 -14 -210 -16 -218 -2 -4 6 -16 93 -26 193 l-19
183 59 55 c52 49 76 62 189 105 72 27 136 54 143 59 20 16 15 75 -8 87 -27 14
-349 8 -410 -8 -110 -29 -121 -35 -141 -74 -23 -45 -56 -67 -65 -43 -8 19 -27
19 -64 0 -41 -21 -40 -59 5 -121 69 -97 90 -159 129 -386 l7 -37 -43 -3 -43
-3 -3 -47 -3 -47 55 -16 c31 -9 56 -22 56 -28 0 -7 16 -156 35 -332 70 -653
75 -701 69 -766 -7 -72 -1 -82 52 -93 33 -7 49 4 56 39 2 12 13 21 28 23 14 2
31 9 38 15 7 6 35 11 61 12 26 1 52 5 58 8 6 4 38 47 72 96 69 102 84 114 196
160 93 38 269 116 406 177 52 24 100 44 106 44 11 0 125 49 181 78 31 16 33
20 30 62 l-3 45 -170 -2 c-139 -2 -179 -6 -220 -22 -187 -71 -405 -121 -532
-121 -68 0 -78 -3 -113 -30 -21 -16 -49 -30 -63 -30 -30 0 -27 -21 -62 330
-14 135 -27 257 -30 273 -4 26 -4 27 46 27 226 0 526 74 743 182 251 126 346
208 346 300 0 19 -13 99 -29 178 -22 111 -39 164 -70 228 -23 45 -41 85 -41
88 0 5 -38 74 -208 379 -59 106 -186 315 -234 388 -66 97 -88 154 -88 227 0
68 -21 175 -37 191 -15 15 -245 111 -278 116 -21 3 -35 -1 -47 -14z"/>
<path d="M9955 5469 c-164 -43 -321 -110 -399 -172 -191 -151 -270 -262 -337
-477 -29 -93 -32 -117 -32 -215 2 -216 54 -416 151 -582 44 -75 139 -178 202
-218 222 -142 341 -170 710 -168 454 2 765 78 1024 250 215 143 391 378 467
623 31 100 33 286 5 370 -62 183 -155 276 -391 390 -289 141 -664 216 -893
179 -86 -15 -96 -14 -164 3 -85 22 -284 32 -343 17z m330 -112 c24 -29 93 -42
122 -22 25 17 80 26 211 32 134 6 242 -10 424 -63 280 -80 495 -204 575 -330
72 -112 86 -282 37 -430 -128 -386 -375 -633 -740 -739 -179 -52 -301 -68
-529 -68 -230 -1 -372 18 -523 69 -251 84 -412 242 -492 484 -28 83 -50 214
-50 295 0 352 211 641 552 759 108 37 168 45 288 41 97 -3 106 -5 125 -28z"/>
<path d="M9867 5063 c-11 -11 -8 -52 7 -81 44 -85 48 -118 29 -235 -17 -105
-17 -110 1 -122 10 -8 23 -12 30 -9 20 8 85 153 101 227 30 136 13 186 -60
173 -33 -7 -36 -5 -46 23 -8 22 -17 31 -33 31 -13 0 -26 -3 -29 -7z"/>
<path d="M10857 5023 c-15 -14 -6 -57 24 -116 30 -61 31 -64 30 -214 -1 -145
0 -153 20 -164 29 -15 39 -2 77 96 26 67 32 99 38 200 6 114 5 121 -15 139
-16 14 -30 17 -62 13 -38 -5 -41 -3 -51 24 -7 20 -17 29 -32 29 -13 0 -26 -3
-29 -7z"/>
<path d="M9947 4333 c-12 -11 -8 -63 8 -92 34 -67 232 -215 336 -253 92 -33
259 -32 339 2 130 57 194 114 188 170 -3 25 -4 25 -78 22 -41 -2 -103 -13
-137 -24 -49 -16 -80 -20 -140 -16 -95 6 -144 27 -238 102 -79 64 -105 74
-149 57 -60 -25 -63 -24 -74 8 -10 29 -38 42 -55 24z"/>
<path d="M3233 5061 c-42 -35 -42 -52 3 -176 87 -243 138 -558 150 -925 3
-107 7 -213 9 -235 1 -22 -1 -107 -5 -188 l-8 -148 38 -150 c21 -82 43 -156
50 -164 15 -18 57 -11 82 14 15 14 19 50 28 261 5 135 10 308 10 384 l0 139
25 -27 c21 -22 32 -26 83 -26 53 0 65 4 136 51 43 28 81 48 84 44 3 -3 -17
-51 -46 -108 -42 -83 -52 -115 -58 -173 -6 -65 -4 -74 21 -114 15 -23 59 -77
99 -120 41 -43 91 -99 112 -125 22 -25 53 -55 71 -66 42 -26 169 -35 293 -20
52 7 162 18 244 26 82 7 152 17 156 22 4 4 5 27 2 51 l-4 42 -132 0 c-204 0
-400 31 -488 76 -26 13 -28 19 -28 72 0 90 18 215 52 357 25 109 29 144 25
216 -5 100 -18 131 -70 173 -36 28 -45 31 -110 30 -56 -1 -99 -10 -197 -43
-109 -36 -243 -71 -275 -71 -6 0 -18 74 -29 178 -16 152 -35 270 -76 469 -5
23 -12 90 -15 149 -3 59 -10 115 -16 125 -12 23 -74 36 -94 19 -11 -9 -22 -9
-46 -1 -41 14 -39 15 -76 -18z"/>
<path d="M2014 4948 c-27 -24 -56 -50 -65 -58 -9 -8 -44 -37 -78 -65 -70 -56
-107 -100 -116 -138 -12 -48 -33 -45 -237 34 -70 27 -135 49 -144 49 -9 0 -34
-14 -56 -32 l-40 -32 6 -63 c6 -61 6 -63 -17 -63 -14 0 -29 -10 -40 -29 -24
-40 -22 -48 16 -72 28 -18 42 -19 119 -13 66 4 105 2 165 -12 43 -10 82 -21
87 -25 5 -4 -8 -33 -29 -65 -94 -142 -259 -468 -300 -595 -24 -74 -15 -118 33
-165 l37 -36 120 6 c66 3 167 10 225 15 111 10 278 -4 410 -34 36 -8 155 -35
265 -60 175 -40 378 -80 497 -98 27 -4 42 -1 53 9 19 19 20 68 2 83 -8 6 -90
29 -183 51 -350 83 -567 176 -751 321 -105 82 -120 89 -198 89 -48 0 -91 -8
-137 -24 -38 -13 -68 -22 -68 -20 0 28 166 295 244 393 50 62 61 71 90 71 42
0 232 -35 270 -49 27 -11 32 -9 52 16 39 48 33 58 -91 138 -105 69 -115 78
-121 113 -4 20 -13 45 -22 54 -17 20 -7 54 36 117 34 49 82 146 82 166 0 25
-31 65 -50 65 -9 0 -39 -19 -66 -42z"/>
<path d="M1785 2986 c-180 -48 -290 -121 -425 -283 -41 -48 -124 -138 -185
-198 -270 -271 -369 -406 -430 -586 -69 -203 -72 -463 -8 -664 41 -130 139
-284 225 -358 163 -138 473 -178 797 -101 178 42 611 180 827 264 184 71 221
109 204 211 -12 73 -29 97 -89 127 l-56 27 -290 -1 c-159 0 -338 -6 -396 -12
-72 -9 -126 -9 -172 -3 -71 10 -134 0 -143 -23 -2 -6 11 -81 29 -166 38 -173
34 -168 129 -169 43 -1 87 10 185 45 137 49 276 84 333 83 31 0 26 -3 -40 -28
-70 -27 -203 -67 -345 -105 -417 -109 -674 -107 -870 8 -68 40 -148 126 -182
197 -51 103 -67 179 -66 314 0 157 25 263 99 414 48 98 67 125 137 196 128
129 268 185 402 162 49 -9 50 -9 82 30 18 21 42 69 54 108 26 80 77 139 156
178 55 28 103 41 103 29 0 -25 -67 -104 -124 -145 -72 -51 -85 -76 -70 -135 7
-29 18 -41 57 -61 43 -21 48 -27 42 -49 -5 -19 1 -32 21 -53 15 -16 35 -29 45
-29 19 0 62 48 99 111 14 23 65 85 113 138 102 110 130 153 151 236 35 133 9
219 -82 272 -43 25 -57 28 -157 30 -67 1 -129 -3 -160 -11z"/>
<path d="M10289 2803 c-12 -29 -9 -47 25 -178 12 -46 16 -123 17 -333 1 -153
-2 -277 -7 -282 -7 -7 -172 -71 -396 -155 -58 -21 -65 -30 -74 -83 -6 -37 -3
-44 23 -69 16 -15 37 -33 47 -38 16 -9 17 -14 6 -32 -11 -18 -10 -25 9 -57 13
-20 25 -36 27 -36 19 0 79 42 129 92 61 60 167 130 218 142 l27 6 0 -67 c-1
-236 -55 -454 -149 -596 -27 -40 -70 -115 -98 -167 -73 -139 -73 -140 -110
-140 -60 0 -80 -15 -118 -90 -19 -38 -38 -70 -40 -70 -3 0 -14 5 -25 12 -17
11 -24 8 -50 -17 -16 -16 -30 -35 -30 -43 0 -8 18 -32 40 -54 l40 -40 -20 -28
c-27 -38 -25 -51 10 -85 l30 -29 27 24 c16 14 44 40 64 58 l37 34 88 -45 c118
-60 156 -75 234 -93 36 -8 83 -19 105 -24 173 -40 167 -40 203 -13 17 13 32
30 32 36 0 7 -48 64 -106 127 -105 113 -109 116 -228 174 -67 32 -123 60 -125
62 -4 4 2 18 31 64 73 119 188 348 225 448 63 173 73 202 87 272 14 71 27 172
41 323 5 51 11 70 23 74 10 3 54 20 99 38 60 24 85 30 91 21 5 -6 49 -116 97
-245 49 -128 95 -235 102 -238 17 -7 53 3 75 19 16 12 16 18 -4 88 -19 67 -20
85 -11 170 8 69 19 114 42 164 37 81 41 144 12 170 -26 24 -318 44 -396 28
-27 -6 -65 -14 -84 -18 l-34 -6 6 183 c3 101 15 251 27 333 11 83 18 157 15
167 -3 9 -23 29 -45 44 l-40 28 -56 -22 c-67 -25 -61 -25 -67 -1 -4 16 -14 20
-46 20 -36 0 -43 -4 -52 -27z"/>
<path d="M4198 2604 c-49 -9 -53 -25 -34 -129 23 -123 25 -111 -92 -655 -28
-129 -67 -316 -87 -415 -19 -99 -52 -236 -72 -304 l-37 -124 30 -23 c40 -32
50 -30 80 16 25 37 30 40 58 35 48 -10 134 -51 175 -84 20 -16 84 -58 141 -94
58 -35 161 -99 230 -141 69 -43 167 -109 217 -147 51 -38 98 -69 104 -69 22 0
69 35 69 51 0 25 -173 260 -213 289 -19 14 -93 67 -164 117 -145 104 -280 210
-365 289 -32 29 -66 55 -76 58 -18 6 -18 10 -5 64 7 31 27 120 43 197 17 77
32 150 35 162 5 19 9 21 30 13 14 -5 44 -11 68 -14 80 -7 128 -27 232 -97
l105 -70 35 21 c19 12 35 26 35 31 0 27 -168 270 -223 323 -89 84 -105 90
-160 67 -47 -20 -57 -41 -57 -117 0 -24 -5 -34 -15 -34 -21 0 -19 26 15 167
17 67 44 180 61 251 17 70 36 133 43 140 30 31 119 42 341 43 132 0 231 -3
247 -10 l27 -10 -6 -113 c-3 -62 -2 -166 2 -230 l7 -118 49 0 c27 0 49 4 49 9
0 4 14 26 31 47 48 60 180 335 186 387 5 41 3 45 -28 64 -83 49 -295 123 -399
138 -102 16 -649 30 -712 19z"/>
<path d="M8152 2555 c-38 -18 -89 -47 -112 -64 -44 -32 -156 -71 -204 -71 -14
0 -35 5 -45 12 -15 9 -29 8 -66 -6 -42 -17 -48 -17 -64 -2 -10 9 -32 16 -49
16 -55 0 -65 -49 -35 -167 21 -87 9 -197 -47 -408 -40 -150 -102 -394 -119
-470 -18 -80 -36 -306 -25 -323 13 -20 45 -37 100 -51 58 -15 107 -51 241
-176 183 -171 224 -215 277 -293 26 -41 54 -76 61 -78 21 -9 85 23 85 42 0 29
-121 298 -143 317 -12 10 -41 44 -66 76 -63 80 -282 333 -301 348 -8 7 -23 13
-33 13 -16 0 -16 2 -2 30 8 16 15 42 15 57 0 25 29 204 34 210 2 2 31 -9 67
-22 94 -37 175 -108 254 -225 37 -55 73 -104 79 -109 8 -7 26 -6 54 1 31 8 42
15 42 30 0 11 -21 82 -46 159 -46 143 -85 215 -195 362 -42 57 -49 62 -88 65
-57 4 -84 -15 -103 -74 -27 -85 -37 -59 -13 33 33 129 84 311 100 363 8 25 19
64 25 88 6 23 16 42 23 42 7 0 28 -25 47 -56 55 -88 63 -94 123 -94 46 0 57 4
92 36 22 20 52 46 66 57 19 16 40 62 79 175 31 90 49 157 44 162 -5 4 -26 13
-46 18 -33 9 -45 6 -106 -23z"/>
<path d="M9358 2510 c-26 -5 -104 -24 -175 -44 -303 -84 -430 -102 -509 -71
l-47 18 -19 -24 c-38 -49 -39 -53 -3 -103 37 -52 76 -159 160 -436 89 -291
133 -357 330 -489 196 -132 227 -165 265 -289 32 -102 8 -186 -77 -268 -97
-92 -327 -223 -486 -275 -49 -16 -89 -42 -185 -120 -72 -59 -122 -107 -122
-117 1 -18 43 -72 57 -72 11 0 372 117 398 129 11 5 86 32 167 60 205 70 283
112 368 198 75 77 93 121 91 226 -5 222 -111 404 -421 722 -171 175 -214 229
-260 326 -55 117 -37 263 44 337 60 55 79 64 176 78 145 22 160 17 84 -28 -47
-29 -74 -74 -74 -123 0 -15 18 -48 46 -82 39 -48 43 -57 30 -65 -20 -11 -21
-57 0 -86 29 -42 119 -20 148 37 14 27 57 72 175 184 111 106 150 203 117 291
-22 57 -40 71 -104 85 -59 12 -104 12 -174 1z"/>
<path d="M6813 2400 c-13 -5 -23 -16 -23 -25 0 -12 -9 -14 -53 -9 -53 6 -53 6
-80 -33 -15 -21 -27 -48 -27 -59 0 -10 18 -66 40 -124 22 -58 43 -119 46 -136
l6 -31 -78 -6 c-42 -4 -101 -7 -130 -7 -70 0 -100 -13 -124 -52 -26 -44 -25
-66 6 -111 24 -36 25 -39 8 -51 -13 -10 -15 -21 -10 -49 4 -20 12 -40 19 -44
23 -14 84 -2 152 32 65 33 188 65 200 53 8 -8 67 -460 61 -466 -13 -12 -185
-20 -261 -12 -91 11 -309 56 -333 69 -8 5 -27 41 -43 82 -17 41 -39 94 -50
117 -43 94 -99 248 -99 275 0 15 6 40 14 55 17 33 56 175 56 203 0 23 -60 89
-81 89 -15 0 -63 -50 -174 -183 -63 -77 -100 -112 -131 -127 -42 -19 -44 -22
-44 -64 0 -35 5 -48 22 -60 l23 -16 -24 -43 c-12 -23 -33 -54 -45 -69 l-21
-27 -95 29 c-52 16 -99 30 -103 30 -12 0 -35 -61 -30 -80 3 -10 31 -37 64 -61
32 -23 59 -47 59 -52 0 -17 -104 -135 -335 -380 -71 -76 -134 -147 -139 -158
-7 -15 -4 -32 12 -64 20 -42 23 -44 69 -47 29 -2 48 -8 49 -15 1 -7 2 -17 3
-22 1 -9 55 -31 76 -31 15 0 50 70 66 132 17 68 58 125 229 318 109 122 157
170 169 166 197 -66 319 -112 332 -125 9 -9 30 -50 47 -91 140 -347 187 -440
303 -597 55 -73 104 -133 109 -133 19 0 70 43 70 59 0 9 -16 43 -36 75 -20 33
-54 96 -76 140 -59 117 -187 451 -177 461 2 2 24 -1 49 -6 113 -23 205 -28
328 -19 70 5 138 13 151 16 22 7 23 5 17 -19 -5 -21 10 -63 66 -184 39 -87 76
-161 82 -165 5 -3 27 3 49 14 l39 20 -7 76 c-3 42 -13 124 -21 182 -27 200
-68 750 -56 761 11 9 151 38 219 45 35 4 69 12 77 18 19 15 28 72 13 84 -14
12 -267 62 -313 62 -31 0 -33 2 -44 53 -6 28 -16 103 -22 166 -12 140 -27 181
-66 180 -15 0 -37 -4 -49 -9z"/>
<path d="M2865 2175 c-59 -34 -60 -34 -80 -15 -22 21 -44 24 -82 14 -19 -5
-23 -13 -23 -46 0 -41 23 -98 40 -98 18 0 70 -82 86 -134 8 -28 31 -141 50
-251 34 -193 46 -350 57 -715 l2 -84 39 -15 c35 -13 40 -13 51 3 7 9 29 83 50
165 l36 147 -10 215 c-6 118 -14 257 -17 309 -4 52 -4 93 -1 90 3 -3 24 -53
46 -111 46 -118 66 -142 131 -159 50 -14 326 -7 515 12 121 12 145 25 145 79
0 32 9 29 -200 77 -69 16 -157 32 -195 36 -71 6 -173 31 -189 46 -5 5 -2 26 8
50 37 93 14 222 -51 283 -29 27 -127 67 -203 82 -19 4 -51 18 -70 31 -45 31
-63 30 -135 -11z"/>
</g>
</svg>
